<svg fill="#949494" version="1.1" id="svg605" width="18" height="21" xmlns="http://www.w3.org/2000/svg"><path d="M18 15.4c-.5 1.1-.7 1.6-1.4 2.5-.9 1.4-2.1 3-3.7 3-1.4 0-1.7-.9-3.6-.9-1.9 0-2.2.9-3.6.9-1.5 0-2.7-1.5-3.6-2.9C-.4 14.2-.6 9.8.9 7.5 2 5.9 3.7 4.9 5.3 4.9c1.6 0 2.7.9 4 .9 1.3 0 2.1-.9 4-.9 1.4 0 2.9.8 4 2.1-3.4 2-2.9 7.1.7 8.4z" fill-rule="evenodd" clip-rule="evenodd" id="path601"/><path d="M11.9 3.4c.7-.9 1.2-2.1 1-3.4-1.1.1-2.4.8-3.2 1.7-.7.8-1.3 2.1-1 3.3 1.2.1 2.5-.6 3.2-1.6Z" fill-rule="evenodd" clip-rule="evenodd" id="path603"/></svg>