<svg viewBox="0 0 22 16" xmlns="http://www.w3.org/2000/svg"><path d="M15 0c.5 0 .9.3 1 .8L17.8 8h.2c2.2 0 4 1.8 4 4s-1.8 4-4 4-4-1.8-4-4c0-1.4.8-2.7 1.9-3.4l-.4-1.7-4.8 4.8c-.2.2-.4.3-.7.3h-.2c-.3-.1-.6-.4-.7-.7L7.3 6H1l-.125-.006C.345 5.942 0 5.557 0 5c0-.6.4-1 1-1h13.7l-.5-2H13l-.125-.006C12.345 1.942 12 1.557 12 1c0-.6.4-1 1-1ZM4 8l.199.005A4.013 4.013 0 0 1 8 12c0 2.2-1.8 4-4 4s-4-1.8-4-4 1.8-4 4-4Zm14 2-.149.006A2.007 2.007 0 0 0 16 12c0 1.1.9 2 2 2l.149-.006A2.007 2.007 0 0 0 20 12c0-1.1-.9-2-2-2ZM4 10l-.149.006A2.007 2.007 0 0 0 2 12c0 1.1.9 2 2 2l.149-.006A2.007 2.007 0 0 0 6 12c0-1.1-.9-2-2-2Zm9.6-4H9.4l1 3.1L13.6 6ZM19 3l.125.006c.53.052.875.437.875.994v1c0 .6-.4 1-1 1s-1-.4-1-1V4c0-.6.4-1 1-1ZM8 1c.6 0 1 .4 1 1s-.4 1-1 1H4c-.6 0-1-.4-1-1s.4-1 1-1Z" fill="#333" fill-rule="nonzero"></path></svg>