<svg xmlns="http://www.w3.org/2000/svg" viewBox="0 0 18 22" fill="#949494"><path d="M6.2 1.7h.1c.1 0 .1-.1.1-.1L5.4 0h-.1c-.1 0-.1.1-.1.1l1 1.6zm5.5 0h-.1c-.1 0-.1-.1-.1-.1L12.6 0h.1c.1 0 .1.1.1.1l-1.1 1.6zM9 2.7C3.3 2.7 3 8 3 8h12s-.4-5.3-6-5.3zM6.4 6.4c-.4 0-.7-.3-.7-.7 0-.4.3-.7.7-.7.4 0 .7.3.7.7 0 .4-.3.7-.7.7zm5.1 0c-.4 0-.7-.3-.7-.7 0-.4.3-.7.7-.7.4 0 .7.3.7.7 0 .4-.3.7-.7.7zM2 15c0 .6-.4 1-1 1s-1-.4-1-1V9c0-.6.4-1 1-1s1 .4 1 1v6zm16 0c0 .6-.4 1-1 1s-1-.4-1-1V9c0-.6.4-1 1-1s1 .4 1 1v6zM7 21c0 .6-.4 1-1 1s-1-.4-1-1v-6c0-.6.4-1 1-1s1 .4 1 1v6zm5 0c0 .6-.4 1-1 1s-1-.4-1-1v-6c0-.6.4-1 1-1s1 .4 1 1v6z"/><path d="M15 17c0 .6-.4 1-1 1H4c-.6 0-1-.4-1-1v-7c0-.6.4-1 1-1h10c.6 0 1 .4 1 1v7z"/></svg>