<svg viewBox="0 0 22 16" xmlns="http://www.w3.org/2000/svg"><path d="M12.5 0c.7 0 1.3.4 1.7 1l2.4 4H18c2.2 0 4 1.8 4 4v3c0 1.1-.9 2-2 2h-1.2c-.4 1.2-1.5 2-2.8 2-1.3 0-2.4-.8-2.8-2H8.8c-.4 1.2-1.5 2-2.8 2-1.3 0-2.4-.8-2.8-2H2c-1.1 0-2-.9-2-2V6.3c0-.3.1-.7.3-1L2.9 1c.3-.6 1-1 1.7-1ZM6 12c-.6 0-1 .4-1 1s.4 1 1 1 1-.4 1-1-.4-1-1-1Zm10 0c-.6 0-1 .4-1 1s.4 1 1 1 1-.4 1-1-.4-1-1-1ZM12.5 2H4.6L2.8 5H5c.6 0 1 .4 1 1s-.4 1-1 1H2v5h1.2c.4-1.2 1.5-2 2.8-2 1.3 0 2.4.8 2.8 2h4.4c.4-1.2 1.5-2 2.8-2 1.3 0 2.4.8 2.8 2h1.3V9c0-1.1-.9-2-2-2h-2c-.4 0-.7-.2-.9-.5L12.5 2ZM11 4c.6 0 1 .4 1 1v1c0 .6-.4 1-1 1s-1-.4-1-1V5c0-.6.4-1 1-1Z" fill="#333" fill-rule="nonzero"></path></svg>